<svg xmlns="http://www.w3.org/2000/svg" viewBox="0 0 1200 900" width="1200" height="900">
  <defs>
    <linearGradient id="craft-bg" x1="0" y1="0" x2="1" y2="1">
      <stop offset="0%" stop-color="#173824" />
      <stop offset="100%" stop-color="#0B1B12" />
    </linearGradient>
  </defs>
  <rect width="1200" height="900" fill="url(#craft-bg)" />
  <circle cx="40" cy="40" r="2.4" fill="#BF9B30" opacity="0.35" /><circle cx="172" cy="40" r="2.4" fill="#BF9B30" opacity="0.35" /><circle cx="304" cy="40" r="2.4" fill="#BF9B30" opacity="0.35" /><circle cx="436" cy="40" r="2.4" fill="#BF9B30" opacity="0.35" /><circle cx="568" cy="40" r="2.4" fill="#BF9B30" opacity="0.35" /><circle cx="700" cy="40" r="2.4" fill="#BF9B30" opacity="0.35" /><circle cx="832" cy="40" r="2.4" fill="#BF9B30" opacity="0.35" /><circle cx="964" cy="40" r="2.4" fill="#BF9B30" opacity="0.35" /><circle cx="1096" cy="40" r="2.4" fill="#BF9B30" opacity="0.35" /><circle cx="106" cy="162" r="2.4" fill="#BF9B30" opacity="0.35" /><circle cx="238" cy="162" r="2.4" fill="#BF9B30" opacity="0.35" /><circle cx="370" cy="162" r="2.4" fill="#BF9B30" opacity="0.35" /><circle cx="502" cy="162" r="2.4" fill="#BF9B30" opacity="0.35" /><circle cx="634" cy="162" r="2.4" fill="#BF9B30" opacity="0.35" /><circle cx="766" cy="162" r="2.4" fill="#BF9B30" opacity="0.35" /><circle cx="898" cy="162" r="2.4" fill="#BF9B30" opacity="0.35" /><circle cx="1030" cy="162" r="2.4" fill="#BF9B30" opacity="0.35" /><circle cx="1162" cy="162" r="2.4" fill="#BF9B30" opacity="0.35" /><circle cx="40" cy="284" r="2.4" fill="#BF9B30" opacity="0.35" /><circle cx="172" cy="284" r="2.4" fill="#BF9B30" opacity="0.35" /><circle cx="304" cy="284" r="2.4" fill="#BF9B30" opacity="0.35" /><circle cx="436" cy="284" r="2.4" fill="#BF9B30" opacity="0.35" /><circle cx="568" cy="284" r="2.4" fill="#BF9B30" opacity="0.35" /><circle cx="700" cy="284" r="2.4" fill="#BF9B30" opacity="0.35" /><circle cx="832" cy="284" r="2.4" fill="#BF9B30" opacity="0.35" /><circle cx="964" cy="284" r="2.4" fill="#BF9B30" opacity="0.35" /><circle cx="1096" cy="284" r="2.4" fill="#BF9B30" opacity="0.35" /><circle cx="106" cy="406" r="2.4" fill="#BF9B30" opacity="0.35" /><circle cx="238" cy="406" r="2.4" fill="#BF9B30" opacity="0.35" /><circle cx="370" cy="406" r="2.4" fill="#BF9B30" opacity="0.35" /><circle cx="502" cy="406" r="2.4" fill="#BF9B30" opacity="0.35" /><circle cx="634" cy="406" r="2.4" fill="#BF9B30" opacity="0.35" /><circle cx="766" cy="406" r="2.4" fill="#BF9B30" opacity="0.35" /><circle cx="898" cy="406" r="2.4" fill="#BF9B30" opacity="0.35" /><circle cx="1030" cy="406" r="2.4" fill="#BF9B30" opacity="0.35" /><circle cx="1162" cy="406" r="2.4" fill="#BF9B30" opacity="0.35" /><circle cx="40" cy="528" r="2.4" fill="#BF9B30" opacity="0.35" /><circle cx="172" cy="528" r="2.4" fill="#BF9B30" opacity="0.35" /><circle cx="304" cy="528" r="2.4" fill="#BF9B30" opacity="0.35" /><circle cx="436" cy="528" r="2.4" fill="#BF9B30" opacity="0.35" /><circle cx="568" cy="528" r="2.4" fill="#BF9B30" opacity="0.35" /><circle cx="700" cy="528" r="2.4" fill="#BF9B30" opacity="0.35" /><circle cx="832" cy="528" r="2.4" fill="#BF9B30" opacity="0.35" /><circle cx="964" cy="528" r="2.4" fill="#BF9B30" opacity="0.35" /><circle cx="1096" cy="528" r="2.4" fill="#BF9B30" opacity="0.35" /><circle cx="106" cy="650" r="2.4" fill="#BF9B30" opacity="0.35" /><circle cx="238" cy="650" r="2.4" fill="#BF9B30" opacity="0.35" /><circle cx="370" cy="650" r="2.4" fill="#BF9B30" opacity="0.35" /><circle cx="502" cy="650" r="2.4" fill="#BF9B30" opacity="0.35" /><circle cx="634" cy="650" r="2.4" fill="#BF9B30" opacity="0.35" /><circle cx="766" cy="650" r="2.4" fill="#BF9B30" opacity="0.35" /><circle cx="898" cy="650" r="2.4" fill="#BF9B30" opacity="0.35" /><circle cx="1030" cy="650" r="2.4" fill="#BF9B30" opacity="0.35" /><circle cx="1162" cy="650" r="2.4" fill="#BF9B30" opacity="0.35" /><circle cx="40" cy="772" r="2.4" fill="#BF9B30" opacity="0.35" /><circle cx="172" cy="772" r="2.4" fill="#BF9B30" opacity="0.35" /><circle cx="304" cy="772" r="2.4" fill="#BF9B30" opacity="0.35" /><circle cx="436" cy="772" r="2.4" fill="#BF9B30" opacity="0.35" /><circle cx="568" cy="772" r="2.4" fill="#BF9B30" opacity="0.35" /><circle cx="700" cy="772" r="2.4" fill="#BF9B30" opacity="0.35" /><circle cx="832" cy="772" r="2.4" fill="#BF9B30" opacity="0.35" /><circle cx="964" cy="772" r="2.4" fill="#BF9B30" opacity="0.35" /><circle cx="1096" cy="772" r="2.4" fill="#BF9B30" opacity="0.35" />
  <g transform="translate(600,450)">
    <line x1="-220" y1="0" x2="-40" y2="0" stroke="#BF9B30" stroke-width="1.6" />
    <line x1="40" y1="0" x2="220" y2="0" stroke="#BF9B30" stroke-width="1.6" />
    <rect x="-28" y="-28" width="56" height="56" transform="rotate(45)" stroke="#BF9B30" stroke-width="1.8" fill="none" />
    <rect x="-11" y="-11" width="22" height="22" transform="rotate(45)" fill="#BF9B30" />
  </g>
  <text x="600" y="560" text-anchor="middle" font-family="Georgia, serif" font-size="30" fill="#F5F0E1" letter-spacing="2">HAND-FINISHED, STITCH BY STITCH</text>
</svg>